ISO-10303-21;
HEADER;
/* Generated by software containing ST-Developer
 * from STEP Tools, Inc. (www.steptools.com) 
 */

FILE_DESCRIPTION(
/* description */ (''),
/* implementation_level */ '2;1');

FILE_NAME(
/* name */ 'Pogo Pin Spacer.step',
/* time_stamp */ '2026-02-13T19:29:48-05:00',
/* author */ (''),
/* organization */ (''),
/* preprocessor_version */ 'ST-DEVELOPER v20.1',
/* originating_system */ 'Autodesk Translation Framework v14.21.0.0',
/* authorisation */ '');

FILE_SCHEMA (('AUTOMOTIVE_DESIGN { 1 0 10303 214 3 1 1 }'));
ENDSEC;

DATA;
#10=MECHANICAL_DESIGN_GEOMETRIC_PRESENTATION_REPRESENTATION('',(#13),#840);
#11=SHAPE_REPRESENTATION_RELATIONSHIP('SRR','None',#846,#12);
#12=ADVANCED_BREP_SHAPE_REPRESENTATION('',(#14),#839);
#13=STYLED_ITEM('',(#856),#14);
#14=MANIFOLD_SOLID_BREP('Pogo Pin Spacer',#464);
#15=B_SPLINE_CURVE_WITH_KNOTS('',3,(#723,#724,#725,#726,#727,#728),
 .UNSPECIFIED.,.F.,.F.,(4,2,4),(2.23961112588063,2.44843549594174,2.49899179609826),
 .UNSPECIFIED.);
#16=B_SPLINE_CURVE_WITH_KNOTS('',3,(#732,#733,#734,#735,#736,#737),
 .UNSPECIFIED.,.F.,.F.,(4,2,4),(1.50731652008454,1.57684567524709,1.76542315064489),
 .UNSPECIFIED.);
#17=B_SPLINE_CURVE_WITH_KNOTS('',3,(#742,#743,#744,#745,#746,#747),
 .UNSPECIFIED.,.F.,.F.,(4,2,4),(2.22560830792893,2.41408081748585,2.48372070089132),
 .UNSPECIFIED.);
#18=B_SPLINE_CURVE_WITH_KNOTS('',3,(#751,#752,#753,#754,#755,#756),
 .UNSPECIFIED.,.F.,.F.,(4,2,4),(1.49204277071706,1.54258384774992,1.75142391467912),
 .UNSPECIFIED.);
#19=CONICAL_SURFACE('',#482,4.25,0.785398163397448);
#20=CONICAL_SURFACE('',#485,4.25,0.785398163397448);
#21=CONICAL_SURFACE('',#504,1.275,0.785398163397448);
#22=CONICAL_SURFACE('',#508,1.275,0.785398163397448);
#23=CONICAL_SURFACE('',#512,1.275,0.785398163397448);
#24=CONICAL_SURFACE('',#516,1.275,0.785398163397448);
#25=FACE_BOUND('',#83,.T.);
#26=FACE_BOUND('',#84,.T.);
#27=FACE_BOUND('',#85,.T.);
#28=FACE_BOUND('',#86,.T.);
#29=FACE_BOUND('',#87,.T.);
#30=FACE_BOUND('',#88,.T.);
#31=FACE_BOUND('',#92,.T.);
#32=FACE_BOUND('',#94,.T.);
#33=FACE_BOUND('',#96,.T.);
#34=FACE_BOUND('',#97,.T.);
#35=FACE_BOUND('',#98,.T.);
#36=FACE_BOUND('',#99,.T.);
#37=FACE_BOUND('',#111,.T.);
#38=FACE_BOUND('',#113,.T.);
#39=FACE_BOUND('',#115,.T.);
#40=FACE_BOUND('',#120,.T.);
#41=PLANE('',#478);
#42=PLANE('',#488);
#43=PLANE('',#491);
#44=PLANE('',#494);
#45=PLANE('',#520);
#46=PLANE('',#522);
#47=PLANE('',#524);
#48=PLANE('',#529);
#49=FACE_OUTER_BOUND('',#78,.T.);
#50=FACE_OUTER_BOUND('',#79,.T.);
#51=FACE_OUTER_BOUND('',#80,.T.);
#52=FACE_OUTER_BOUND('',#81,.T.);
#53=FACE_OUTER_BOUND('',#82,.T.);
#54=FACE_OUTER_BOUND('',#89,.T.);
#55=FACE_OUTER_BOUND('',#90,.T.);
#56=FACE_OUTER_BOUND('',#91,.T.);
#57=FACE_OUTER_BOUND('',#93,.T.);
#58=FACE_OUTER_BOUND('',#95,.T.);
#59=FACE_OUTER_BOUND('',#100,.T.);
#60=FACE_OUTER_BOUND('',#101,.T.);
#61=FACE_OUTER_BOUND('',#102,.T.);
#62=FACE_OUTER_BOUND('',#103,.T.);
#63=FACE_OUTER_BOUND('',#104,.T.);
#64=FACE_OUTER_BOUND('',#105,.T.);
#65=FACE_OUTER_BOUND('',#106,.T.);
#66=FACE_OUTER_BOUND('',#107,.T.);
#67=FACE_OUTER_BOUND('',#108,.T.);
#68=FACE_OUTER_BOUND('',#109,.T.);
#69=FACE_OUTER_BOUND('',#110,.T.);
#70=FACE_OUTER_BOUND('',#112,.T.);
#71=FACE_OUTER_BOUND('',#114,.T.);
#72=FACE_OUTER_BOUND('',#116,.T.);
#73=FACE_OUTER_BOUND('',#117,.T.);
#74=FACE_OUTER_BOUND('',#118,.T.);
#75=FACE_OUTER_BOUND('',#119,.T.);
#76=FACE_OUTER_BOUND('',#121,.T.);
#77=FACE_OUTER_BOUND('',#122,.T.);
#78=EDGE_LOOP('',(#298,#299,#300,#301));
#79=EDGE_LOOP('',(#302,#303,#304,#305));
#80=EDGE_LOOP('',(#306,#307,#308,#309));
#81=EDGE_LOOP('',(#310,#311,#312,#313));
#82=EDGE_LOOP('',(#314));
#83=EDGE_LOOP('',(#315));
#84=EDGE_LOOP('',(#316));
#85=EDGE_LOOP('',(#317));
#86=EDGE_LOOP('',(#318));
#87=EDGE_LOOP('',(#319));
#88=EDGE_LOOP('',(#320));
#89=EDGE_LOOP('',(#321,#322,#323,#324));
#90=EDGE_LOOP('',(#325,#326,#327,#328));
#91=EDGE_LOOP('',(#329,#330));
#92=EDGE_LOOP('',(#331));
#93=EDGE_LOOP('',(#332,#333));
#94=EDGE_LOOP('',(#334));
#95=EDGE_LOOP('',(#335,#336,#337,#338,#339));
#96=EDGE_LOOP('',(#340));
#97=EDGE_LOOP('',(#341));
#98=EDGE_LOOP('',(#342));
#99=EDGE_LOOP('',(#343));
#100=EDGE_LOOP('',(#344,#345,#346,#347));
#101=EDGE_LOOP('',(#348,#349,#350,#351));
#102=EDGE_LOOP('',(#352,#353,#354,#355));
#103=EDGE_LOOP('',(#356,#357,#358,#359));
#104=EDGE_LOOP('',(#360,#361,#362,#363));
#105=EDGE_LOOP('',(#364,#365,#366,#367));
#106=EDGE_LOOP('',(#368,#369,#370,#371));
#107=EDGE_LOOP('',(#372,#373,#374,#375));
#108=EDGE_LOOP('',(#376,#377,#378,#379));
#109=EDGE_LOOP('',(#380,#381,#382,#383));
#110=EDGE_LOOP('',(#384));
#111=EDGE_LOOP('',(#385));
#112=EDGE_LOOP('',(#386));
#113=EDGE_LOOP('',(#387));
#114=EDGE_LOOP('',(#388));
#115=EDGE_LOOP('',(#389));
#116=EDGE_LOOP('',(#390,#391,#392,#393));
#117=EDGE_LOOP('',(#394,#395,#396,#397));
#118=EDGE_LOOP('',(#398,#399,#400,#401));
#119=EDGE_LOOP('',(#402));
#120=EDGE_LOOP('',(#403));
#121=EDGE_LOOP('',(#404,#405,#406,#407));
#122=EDGE_LOOP('',(#408,#409,#410,#411,#412,#413,#414,#415,#416,#417,#418,
#419));
#123=LINE('',#693,#142);
#124=LINE('',#699,#143);
#125=LINE('',#705,#144);
#126=LINE('',#711,#145);
#127=LINE('',#780,#146);
#128=LINE('',#782,#147);
#129=LINE('',#785,#148);
#130=LINE('',#789,#149);
#131=LINE('',#793,#150);
#132=LINE('',#797,#151);
#133=LINE('',#801,#152);
#134=LINE('',#805,#153);
#135=LINE('',#809,#154);
#136=LINE('',#813,#155);
#137=LINE('',#825,#156);
#138=LINE('',#827,#157);
#139=LINE('',#829,#158);
#140=LINE('',#834,#159);
#141=LINE('',#836,#160);
#142=VECTOR('',#539,1.425);
#143=VECTOR('',#546,1.425);
#144=VECTOR('',#553,1.425);
#145=VECTOR('',#560,1.425);
#146=VECTOR('',#613,2.25);
#147=VECTOR('',#616,2.25);
#148=VECTOR('',#619,1.275);
#149=VECTOR('',#624,1.125);
#150=VECTOR('',#629,1.275);
#151=VECTOR('',#634,1.125);
#152=VECTOR('',#639,1.275);
#153=VECTOR('',#644,1.125);
#154=VECTOR('',#649,1.275);
#155=VECTOR('',#654,1.125);
#156=VECTOR('',#671,0.875);
#157=VECTOR('',#674,0.875);
#158=VECTOR('',#677,0.875);
#159=VECTOR('',#684,0.875);
#160=VECTOR('',#687,16.5);
#161=CIRCLE('',#467,1.425);
#162=CIRCLE('',#468,1.425);
#163=CIRCLE('',#470,1.425);
#164=CIRCLE('',#471,1.425);
#165=CIRCLE('',#473,1.425);
#166=CIRCLE('',#474,1.425);
#167=CIRCLE('',#476,1.425);
#168=CIRCLE('',#477,1.425);
#169=CIRCLE('',#479,16.5);
#170=CIRCLE('',#480,2.25);
#171=CIRCLE('',#481,2.25);
#172=CIRCLE('',#483,5.);
#173=CIRCLE('',#484,3.5);
#174=CIRCLE('',#486,5.);
#175=CIRCLE('',#487,3.5);
#176=CIRCLE('',#489,16.5);
#177=CIRCLE('',#490,2.25);
#178=CIRCLE('',#492,16.5);
#179=CIRCLE('',#493,2.25);
#180=CIRCLE('',#495,16.5);
#181=CIRCLE('',#496,16.5);
#182=CIRCLE('',#497,16.5);
#183=CIRCLE('',#498,0.875);
#184=CIRCLE('',#499,0.875);
#185=CIRCLE('',#500,0.875);
#186=CIRCLE('',#501,0.875);
#187=CIRCLE('',#505,1.125);
#188=CIRCLE('',#507,1.125);
#189=CIRCLE('',#509,1.125);
#190=CIRCLE('',#511,1.125);
#191=CIRCLE('',#513,1.125);
#192=CIRCLE('',#515,1.125);
#193=CIRCLE('',#517,1.125);
#194=CIRCLE('',#519,1.125);
#195=CIRCLE('',#521,0.875);
#196=CIRCLE('',#523,0.875);
#197=CIRCLE('',#525,0.875);
#198=CIRCLE('',#530,0.875);
#199=VERTEX_POINT('',#690);
#200=VERTEX_POINT('',#692);
#201=VERTEX_POINT('',#696);
#202=VERTEX_POINT('',#698);
#203=VERTEX_POINT('',#702);
#204=VERTEX_POINT('',#704);
#205=VERTEX_POINT('',#708);
#206=VERTEX_POINT('',#710);
#207=VERTEX_POINT('',#714);
#208=VERTEX_POINT('',#716);
#209=VERTEX_POINT('',#718);
#210=VERTEX_POINT('',#721);
#211=VERTEX_POINT('',#722);
#212=VERTEX_POINT('',#729);
#213=VERTEX_POINT('',#731);
#214=VERTEX_POINT('',#740);
#215=VERTEX_POINT('',#741);
#216=VERTEX_POINT('',#748);
#217=VERTEX_POINT('',#750);
#218=VERTEX_POINT('',#760);
#219=VERTEX_POINT('',#764);
#220=VERTEX_POINT('',#768);
#221=VERTEX_POINT('',#771);
#222=VERTEX_POINT('',#773);
#223=VERTEX_POINT('',#775);
#224=VERTEX_POINT('',#777);
#225=VERTEX_POINT('',#784);
#226=VERTEX_POINT('',#788);
#227=VERTEX_POINT('',#792);
#228=VERTEX_POINT('',#796);
#229=VERTEX_POINT('',#800);
#230=VERTEX_POINT('',#804);
#231=VERTEX_POINT('',#808);
#232=VERTEX_POINT('',#812);
#233=VERTEX_POINT('',#816);
#234=VERTEX_POINT('',#819);
#235=VERTEX_POINT('',#822);
#236=VERTEX_POINT('',#831);
#237=EDGE_CURVE('',#199,#199,#161,.T.);
#238=EDGE_CURVE('',#199,#200,#123,.T.);
#239=EDGE_CURVE('',#200,#200,#162,.T.);
#240=EDGE_CURVE('',#201,#201,#163,.T.);
#241=EDGE_CURVE('',#201,#202,#124,.T.);
#242=EDGE_CURVE('',#202,#202,#164,.T.);
#243=EDGE_CURVE('',#203,#203,#165,.T.);
#244=EDGE_CURVE('',#203,#204,#125,.T.);
#245=EDGE_CURVE('',#204,#204,#166,.T.);
#246=EDGE_CURVE('',#205,#205,#167,.T.);
#247=EDGE_CURVE('',#205,#206,#126,.T.);
#248=EDGE_CURVE('',#206,#206,#168,.T.);
#249=EDGE_CURVE('',#207,#207,#169,.T.);
#250=EDGE_CURVE('',#208,#208,#170,.T.);
#251=EDGE_CURVE('',#209,#209,#171,.T.);
#252=EDGE_CURVE('',#210,#211,#15,.T.);
#253=EDGE_CURVE('',#211,#212,#172,.T.);
#254=EDGE_CURVE('',#212,#213,#16,.T.);
#255=EDGE_CURVE('',#213,#210,#173,.T.);
#256=EDGE_CURVE('',#214,#215,#17,.T.);
#257=EDGE_CURVE('',#215,#216,#174,.T.);
#258=EDGE_CURVE('',#216,#217,#18,.T.);
#259=EDGE_CURVE('',#217,#214,#175,.T.);
#260=EDGE_CURVE('',#210,#213,#176,.T.);
#261=EDGE_CURVE('',#218,#218,#177,.T.);
#262=EDGE_CURVE('',#214,#217,#178,.T.);
#263=EDGE_CURVE('',#219,#219,#179,.T.);
#264=EDGE_CURVE('',#216,#211,#180,.T.);
#265=EDGE_CURVE('',#220,#215,#181,.T.);
#266=EDGE_CURVE('',#212,#220,#182,.T.);
#267=EDGE_CURVE('',#221,#221,#183,.T.);
#268=EDGE_CURVE('',#222,#222,#184,.T.);
#269=EDGE_CURVE('',#223,#223,#185,.T.);
#270=EDGE_CURVE('',#224,#224,#186,.T.);
#271=EDGE_CURVE('',#219,#208,#127,.T.);
#272=EDGE_CURVE('',#218,#209,#128,.T.);
#273=EDGE_CURVE('',#200,#225,#129,.T.);
#274=EDGE_CURVE('',#225,#225,#187,.T.);
#275=EDGE_CURVE('',#225,#226,#130,.T.);
#276=EDGE_CURVE('',#226,#226,#188,.T.);
#277=EDGE_CURVE('',#206,#227,#131,.T.);
#278=EDGE_CURVE('',#227,#227,#189,.T.);
#279=EDGE_CURVE('',#227,#228,#132,.T.);
#280=EDGE_CURVE('',#228,#228,#190,.T.);
#281=EDGE_CURVE('',#202,#229,#133,.T.);
#282=EDGE_CURVE('',#229,#229,#191,.T.);
#283=EDGE_CURVE('',#229,#230,#134,.T.);
#284=EDGE_CURVE('',#230,#230,#192,.T.);
#285=EDGE_CURVE('',#204,#231,#135,.T.);
#286=EDGE_CURVE('',#231,#231,#193,.T.);
#287=EDGE_CURVE('',#231,#232,#136,.T.);
#288=EDGE_CURVE('',#232,#232,#194,.T.);
#289=EDGE_CURVE('',#233,#233,#195,.T.);
#290=EDGE_CURVE('',#234,#234,#196,.T.);
#291=EDGE_CURVE('',#235,#235,#197,.T.);
#292=EDGE_CURVE('',#233,#224,#137,.T.);
#293=EDGE_CURVE('',#234,#223,#138,.T.);
#294=EDGE_CURVE('',#235,#222,#139,.T.);
#295=EDGE_CURVE('',#236,#236,#198,.T.);
#296=EDGE_CURVE('',#236,#221,#140,.T.);
#297=EDGE_CURVE('',#207,#220,#141,.T.);
#298=ORIENTED_EDGE('',*,*,#237,.F.);
#299=ORIENTED_EDGE('',*,*,#238,.T.);
#300=ORIENTED_EDGE('',*,*,#239,.F.);
#301=ORIENTED_EDGE('',*,*,#238,.F.);
#302=ORIENTED_EDGE('',*,*,#240,.F.);
#303=ORIENTED_EDGE('',*,*,#241,.T.);
#304=ORIENTED_EDGE('',*,*,#242,.F.);
#305=ORIENTED_EDGE('',*,*,#241,.F.);
#306=ORIENTED_EDGE('',*,*,#243,.F.);
#307=ORIENTED_EDGE('',*,*,#244,.T.);
#308=ORIENTED_EDGE('',*,*,#245,.F.);
#309=ORIENTED_EDGE('',*,*,#244,.F.);
#310=ORIENTED_EDGE('',*,*,#246,.F.);
#311=ORIENTED_EDGE('',*,*,#247,.T.);
#312=ORIENTED_EDGE('',*,*,#248,.F.);
#313=ORIENTED_EDGE('',*,*,#247,.F.);
#314=ORIENTED_EDGE('',*,*,#249,.T.);
#315=ORIENTED_EDGE('',*,*,#250,.T.);
#316=ORIENTED_EDGE('',*,*,#251,.T.);
#317=ORIENTED_EDGE('',*,*,#246,.T.);
#318=ORIENTED_EDGE('',*,*,#243,.T.);
#319=ORIENTED_EDGE('',*,*,#240,.T.);
#320=ORIENTED_EDGE('',*,*,#237,.T.);
#321=ORIENTED_EDGE('',*,*,#252,.T.);
#322=ORIENTED_EDGE('',*,*,#253,.T.);
#323=ORIENTED_EDGE('',*,*,#254,.T.);
#324=ORIENTED_EDGE('',*,*,#255,.T.);
#325=ORIENTED_EDGE('',*,*,#256,.T.);
#326=ORIENTED_EDGE('',*,*,#257,.T.);
#327=ORIENTED_EDGE('',*,*,#258,.T.);
#328=ORIENTED_EDGE('',*,*,#259,.T.);
#329=ORIENTED_EDGE('',*,*,#255,.F.);
#330=ORIENTED_EDGE('',*,*,#260,.F.);
#331=ORIENTED_EDGE('',*,*,#261,.F.);
#332=ORIENTED_EDGE('',*,*,#259,.F.);
#333=ORIENTED_EDGE('',*,*,#262,.F.);
#334=ORIENTED_EDGE('',*,*,#263,.F.);
#335=ORIENTED_EDGE('',*,*,#253,.F.);
#336=ORIENTED_EDGE('',*,*,#264,.F.);
#337=ORIENTED_EDGE('',*,*,#257,.F.);
#338=ORIENTED_EDGE('',*,*,#265,.F.);
#339=ORIENTED_EDGE('',*,*,#266,.F.);
#340=ORIENTED_EDGE('',*,*,#267,.T.);
#341=ORIENTED_EDGE('',*,*,#268,.T.);
#342=ORIENTED_EDGE('',*,*,#269,.T.);
#343=ORIENTED_EDGE('',*,*,#270,.T.);
#344=ORIENTED_EDGE('',*,*,#263,.T.);
#345=ORIENTED_EDGE('',*,*,#271,.T.);
#346=ORIENTED_EDGE('',*,*,#250,.F.);
#347=ORIENTED_EDGE('',*,*,#271,.F.);
#348=ORIENTED_EDGE('',*,*,#261,.T.);
#349=ORIENTED_EDGE('',*,*,#272,.T.);
#350=ORIENTED_EDGE('',*,*,#251,.F.);
#351=ORIENTED_EDGE('',*,*,#272,.F.);
#352=ORIENTED_EDGE('',*,*,#239,.T.);
#353=ORIENTED_EDGE('',*,*,#273,.T.);
#354=ORIENTED_EDGE('',*,*,#274,.T.);
#355=ORIENTED_EDGE('',*,*,#273,.F.);
#356=ORIENTED_EDGE('',*,*,#274,.F.);
#357=ORIENTED_EDGE('',*,*,#275,.T.);
#358=ORIENTED_EDGE('',*,*,#276,.T.);
#359=ORIENTED_EDGE('',*,*,#275,.F.);
#360=ORIENTED_EDGE('',*,*,#248,.T.);
#361=ORIENTED_EDGE('',*,*,#277,.T.);
#362=ORIENTED_EDGE('',*,*,#278,.T.);
#363=ORIENTED_EDGE('',*,*,#277,.F.);
#364=ORIENTED_EDGE('',*,*,#278,.F.);
#365=ORIENTED_EDGE('',*,*,#279,.T.);
#366=ORIENTED_EDGE('',*,*,#280,.T.);
#367=ORIENTED_EDGE('',*,*,#279,.F.);
#368=ORIENTED_EDGE('',*,*,#242,.T.);
#369=ORIENTED_EDGE('',*,*,#281,.T.);
#370=ORIENTED_EDGE('',*,*,#282,.T.);
#371=ORIENTED_EDGE('',*,*,#281,.F.);
#372=ORIENTED_EDGE('',*,*,#282,.F.);
#373=ORIENTED_EDGE('',*,*,#283,.T.);
#374=ORIENTED_EDGE('',*,*,#284,.T.);
#375=ORIENTED_EDGE('',*,*,#283,.F.);
#376=ORIENTED_EDGE('',*,*,#245,.T.);
#377=ORIENTED_EDGE('',*,*,#285,.T.);
#378=ORIENTED_EDGE('',*,*,#286,.T.);
#379=ORIENTED_EDGE('',*,*,#285,.F.);
#380=ORIENTED_EDGE('',*,*,#286,.F.);
#381=ORIENTED_EDGE('',*,*,#287,.T.);
#382=ORIENTED_EDGE('',*,*,#288,.T.);
#383=ORIENTED_EDGE('',*,*,#287,.F.);
#384=ORIENTED_EDGE('',*,*,#276,.F.);
#385=ORIENTED_EDGE('',*,*,#289,.F.);
#386=ORIENTED_EDGE('',*,*,#284,.F.);
#387=ORIENTED_EDGE('',*,*,#290,.F.);
#388=ORIENTED_EDGE('',*,*,#288,.F.);
#389=ORIENTED_EDGE('',*,*,#291,.F.);
#390=ORIENTED_EDGE('',*,*,#289,.T.);
#391=ORIENTED_EDGE('',*,*,#292,.T.);
#392=ORIENTED_EDGE('',*,*,#270,.F.);
#393=ORIENTED_EDGE('',*,*,#292,.F.);
#394=ORIENTED_EDGE('',*,*,#290,.T.);
#395=ORIENTED_EDGE('',*,*,#293,.T.);
#396=ORIENTED_EDGE('',*,*,#269,.F.);
#397=ORIENTED_EDGE('',*,*,#293,.F.);
#398=ORIENTED_EDGE('',*,*,#291,.T.);
#399=ORIENTED_EDGE('',*,*,#294,.T.);
#400=ORIENTED_EDGE('',*,*,#268,.F.);
#401=ORIENTED_EDGE('',*,*,#294,.F.);
#402=ORIENTED_EDGE('',*,*,#280,.F.);
#403=ORIENTED_EDGE('',*,*,#295,.F.);
#404=ORIENTED_EDGE('',*,*,#295,.T.);
#405=ORIENTED_EDGE('',*,*,#296,.T.);
#406=ORIENTED_EDGE('',*,*,#267,.F.);
#407=ORIENTED_EDGE('',*,*,#296,.F.);
#408=ORIENTED_EDGE('',*,*,#249,.F.);
#409=ORIENTED_EDGE('',*,*,#297,.T.);
#410=ORIENTED_EDGE('',*,*,#265,.T.);
#411=ORIENTED_EDGE('',*,*,#256,.F.);
#412=ORIENTED_EDGE('',*,*,#262,.T.);
#413=ORIENTED_EDGE('',*,*,#258,.F.);
#414=ORIENTED_EDGE('',*,*,#264,.T.);
#415=ORIENTED_EDGE('',*,*,#252,.F.);
#416=ORIENTED_EDGE('',*,*,#260,.T.);
#417=ORIENTED_EDGE('',*,*,#254,.F.);
#418=ORIENTED_EDGE('',*,*,#266,.T.);
#419=ORIENTED_EDGE('',*,*,#297,.F.);
#420=CYLINDRICAL_SURFACE('',#466,1.425);
#421=CYLINDRICAL_SURFACE('',#469,1.425);
#422=CYLINDRICAL_SURFACE('',#472,1.425);
#423=CYLINDRICAL_SURFACE('',#475,1.425);
#424=CYLINDRICAL_SURFACE('',#502,2.25);
#425=CYLINDRICAL_SURFACE('',#503,2.25);
#426=CYLINDRICAL_SURFACE('',#506,1.125);
#427=CYLINDRICAL_SURFACE('',#510,1.125);
#428=CYLINDRICAL_SURFACE('',#514,1.125);
#429=CYLINDRICAL_SURFACE('',#518,1.125);
#430=CYLINDRICAL_SURFACE('',#526,0.875);
#431=CYLINDRICAL_SURFACE('',#527,0.875);
#432=CYLINDRICAL_SURFACE('',#528,0.875);
#433=CYLINDRICAL_SURFACE('',#531,0.875);
#434=CYLINDRICAL_SURFACE('',#532,16.5);
#435=ADVANCED_FACE('',(#49),#420,.F.);
#436=ADVANCED_FACE('',(#50),#421,.F.);
#437=ADVANCED_FACE('',(#51),#422,.F.);
#438=ADVANCED_FACE('',(#52),#423,.F.);
#439=ADVANCED_FACE('',(#53,#25,#26,#27,#28,#29,#30),#41,.T.);
#440=ADVANCED_FACE('',(#54),#19,.F.);
#441=ADVANCED_FACE('',(#55),#20,.F.);
#442=ADVANCED_FACE('',(#56,#31),#42,.T.);
#443=ADVANCED_FACE('',(#57,#32),#43,.T.);
#444=ADVANCED_FACE('',(#58,#33,#34,#35,#36),#44,.F.);
#445=ADVANCED_FACE('',(#59),#424,.F.);
#446=ADVANCED_FACE('',(#60),#425,.F.);
#447=ADVANCED_FACE('',(#61),#21,.F.);
#448=ADVANCED_FACE('',(#62),#426,.F.);
#449=ADVANCED_FACE('',(#63),#22,.F.);
#450=ADVANCED_FACE('',(#64),#427,.F.);
#451=ADVANCED_FACE('',(#65),#23,.F.);
#452=ADVANCED_FACE('',(#66),#428,.F.);
#453=ADVANCED_FACE('',(#67),#24,.F.);
#454=ADVANCED_FACE('',(#68),#429,.F.);
#455=ADVANCED_FACE('',(#69,#37),#45,.T.);
#456=ADVANCED_FACE('',(#70,#38),#46,.T.);
#457=ADVANCED_FACE('',(#71,#39),#47,.T.);
#458=ADVANCED_FACE('',(#72),#430,.F.);
#459=ADVANCED_FACE('',(#73),#431,.F.);
#460=ADVANCED_FACE('',(#74),#432,.F.);
#461=ADVANCED_FACE('',(#75,#40),#48,.T.);
#462=ADVANCED_FACE('',(#76),#433,.F.);
#463=ADVANCED_FACE('',(#77),#434,.T.);
#464=CLOSED_SHELL('',(#435,#436,#437,#438,#439,#440,#441,#442,#443,#444,
#445,#446,#447,#448,#449,#450,#451,#452,#453,#454,#455,#456,#457,#458,#459,
#460,#461,#462,#463));
#465=AXIS2_PLACEMENT_3D('',#688,#533,#534);
#466=AXIS2_PLACEMENT_3D('',#689,#535,#536);
#467=AXIS2_PLACEMENT_3D('',#691,#537,#538);
#468=AXIS2_PLACEMENT_3D('',#694,#540,#541);
#469=AXIS2_PLACEMENT_3D('',#695,#542,#543);
#470=AXIS2_PLACEMENT_3D('',#697,#544,#545);
#471=AXIS2_PLACEMENT_3D('',#700,#547,#548);
#472=AXIS2_PLACEMENT_3D('',#701,#549,#550);
#473=AXIS2_PLACEMENT_3D('',#703,#551,#552);
#474=AXIS2_PLACEMENT_3D('',#706,#554,#555);
#475=AXIS2_PLACEMENT_3D('',#707,#556,#557);
#476=AXIS2_PLACEMENT_3D('',#709,#558,#559);
#477=AXIS2_PLACEMENT_3D('',#712,#561,#562);
#478=AXIS2_PLACEMENT_3D('',#713,#563,#564);
#479=AXIS2_PLACEMENT_3D('',#715,#565,#566);
#480=AXIS2_PLACEMENT_3D('',#717,#567,#568);
#481=AXIS2_PLACEMENT_3D('',#719,#569,#570);
#482=AXIS2_PLACEMENT_3D('',#720,#571,#572);
#483=AXIS2_PLACEMENT_3D('',#730,#573,#574);
#484=AXIS2_PLACEMENT_3D('',#738,#575,#576);
#485=AXIS2_PLACEMENT_3D('',#739,#577,#578);
#486=AXIS2_PLACEMENT_3D('',#749,#579,#580);
#487=AXIS2_PLACEMENT_3D('',#757,#581,#582);
#488=AXIS2_PLACEMENT_3D('',#758,#583,#584);
#489=AXIS2_PLACEMENT_3D('',#759,#585,#586);
#490=AXIS2_PLACEMENT_3D('',#761,#587,#588);
#491=AXIS2_PLACEMENT_3D('',#762,#589,#590);
#492=AXIS2_PLACEMENT_3D('',#763,#591,#592);
#493=AXIS2_PLACEMENT_3D('',#765,#593,#594);
#494=AXIS2_PLACEMENT_3D('',#766,#595,#596);
#495=AXIS2_PLACEMENT_3D('',#767,#597,#598);
#496=AXIS2_PLACEMENT_3D('',#769,#599,#600);
#497=AXIS2_PLACEMENT_3D('',#770,#601,#602);
#498=AXIS2_PLACEMENT_3D('',#772,#603,#604);
#499=AXIS2_PLACEMENT_3D('',#774,#605,#606);
#500=AXIS2_PLACEMENT_3D('',#776,#607,#608);
#501=AXIS2_PLACEMENT_3D('',#778,#609,#610);
#502=AXIS2_PLACEMENT_3D('',#779,#611,#612);
#503=AXIS2_PLACEMENT_3D('',#781,#614,#615);
#504=AXIS2_PLACEMENT_3D('',#783,#617,#618);
#505=AXIS2_PLACEMENT_3D('',#786,#620,#621);
#506=AXIS2_PLACEMENT_3D('',#787,#622,#623);
#507=AXIS2_PLACEMENT_3D('',#790,#625,#626);
#508=AXIS2_PLACEMENT_3D('',#791,#627,#628);
#509=AXIS2_PLACEMENT_3D('',#794,#630,#631);
#510=AXIS2_PLACEMENT_3D('',#795,#632,#633);
#511=AXIS2_PLACEMENT_3D('',#798,#635,#636);
#512=AXIS2_PLACEMENT_3D('',#799,#637,#638);
#513=AXIS2_PLACEMENT_3D('',#802,#640,#641);
#514=AXIS2_PLACEMENT_3D('',#803,#642,#643);
#515=AXIS2_PLACEMENT_3D('',#806,#645,#646);
#516=AXIS2_PLACEMENT_3D('',#807,#647,#648);
#517=AXIS2_PLACEMENT_3D('',#810,#650,#651);
#518=AXIS2_PLACEMENT_3D('',#811,#652,#653);
#519=AXIS2_PLACEMENT_3D('',#814,#655,#656);
#520=AXIS2_PLACEMENT_3D('',#815,#657,#658);
#521=AXIS2_PLACEMENT_3D('',#817,#659,#660);
#522=AXIS2_PLACEMENT_3D('',#818,#661,#662);
#523=AXIS2_PLACEMENT_3D('',#820,#663,#664);
#524=AXIS2_PLACEMENT_3D('',#821,#665,#666);
#525=AXIS2_PLACEMENT_3D('',#823,#667,#668);
#526=AXIS2_PLACEMENT_3D('',#824,#669,#670);
#527=AXIS2_PLACEMENT_3D('',#826,#672,#673);
#528=AXIS2_PLACEMENT_3D('',#828,#675,#676);
#529=AXIS2_PLACEMENT_3D('',#830,#678,#679);
#530=AXIS2_PLACEMENT_3D('',#832,#680,#681);
#531=AXIS2_PLACEMENT_3D('',#833,#682,#683);
#532=AXIS2_PLACEMENT_3D('',#835,#685,#686);
#533=DIRECTION('axis',(0.,0.,1.));
#534=DIRECTION('refdir',(1.,0.,0.));
#535=DIRECTION('center_axis',(0.,1.,0.));
#536=DIRECTION('ref_axis',(-1.,0.,0.));
#537=DIRECTION('center_axis',(0.,-1.,0.));
#538=DIRECTION('ref_axis',(-1.,0.,0.));
#539=DIRECTION('',(0.,-1.,0.));
#540=DIRECTION('center_axis',(0.,1.,0.));
#541=DIRECTION('ref_axis',(-1.,0.,0.));
#542=DIRECTION('center_axis',(0.,1.,0.));
#543=DIRECTION('ref_axis',(-1.,0.,0.));
#544=DIRECTION('center_axis',(0.,-1.,0.));
#545=DIRECTION('ref_axis',(-1.,0.,0.));
#546=DIRECTION('',(0.,-1.,0.));
#547=DIRECTION('center_axis',(0.,1.,0.));
#548=DIRECTION('ref_axis',(-1.,0.,0.));
#549=DIRECTION('center_axis',(0.,1.,0.));
#550=DIRECTION('ref_axis',(-1.,0.,0.));
#551=DIRECTION('center_axis',(0.,-1.,0.));
#552=DIRECTION('ref_axis',(-1.,0.,0.));
#553=DIRECTION('',(0.,-1.,0.));
#554=DIRECTION('center_axis',(0.,1.,0.));
#555=DIRECTION('ref_axis',(-1.,0.,0.));
#556=DIRECTION('center_axis',(0.,1.,0.));
#557=DIRECTION('ref_axis',(-1.,0.,0.));
#558=DIRECTION('center_axis',(0.,-1.,0.));
#559=DIRECTION('ref_axis',(-1.,0.,0.));
#560=DIRECTION('',(0.,-1.,0.));
#561=DIRECTION('center_axis',(0.,1.,0.));
#562=DIRECTION('ref_axis',(-1.,0.,0.));
#563=DIRECTION('center_axis',(0.,1.,0.));
#564=DIRECTION('ref_axis',(1.,0.,0.));
#565=DIRECTION('center_axis',(0.,1.,0.));
#566=DIRECTION('ref_axis',(1.,0.,0.));
#567=DIRECTION('center_axis',(0.,-1.,0.));
#568=DIRECTION('ref_axis',(1.,0.,0.));
#569=DIRECTION('center_axis',(0.,-1.,0.));
#570=DIRECTION('ref_axis',(1.,0.,0.));
#571=DIRECTION('center_axis',(0.,-1.,0.));
#572=DIRECTION('ref_axis',(-3.82856869892695E-16,0.,1.));
#573=DIRECTION('center_axis',(0.,-1.,0.));
#574=DIRECTION('ref_axis',(1.,0.,0.));
#575=DIRECTION('center_axis',(0.,1.,0.));
#576=DIRECTION('ref_axis',(1.,0.,0.));
#577=DIRECTION('center_axis',(0.,-1.,0.));
#578=DIRECTION('ref_axis',(-1.83697019872103E-16,0.,-1.));
#579=DIRECTION('center_axis',(0.,-1.,0.));
#580=DIRECTION('ref_axis',(1.,0.,0.));
#581=DIRECTION('center_axis',(0.,1.,0.));
#582=DIRECTION('ref_axis',(1.,0.,0.));
#583=DIRECTION('center_axis',(0.,-1.,0.));
#584=DIRECTION('ref_axis',(1.,0.,0.));
#585=DIRECTION('center_axis',(0.,1.,0.));
#586=DIRECTION('ref_axis',(1.,0.,0.));
#587=DIRECTION('center_axis',(0.,-1.,0.));
#588=DIRECTION('ref_axis',(1.,0.,0.));
#589=DIRECTION('center_axis',(0.,-1.,0.));
#590=DIRECTION('ref_axis',(1.,0.,0.));
#591=DIRECTION('center_axis',(0.,1.,0.));
#592=DIRECTION('ref_axis',(1.,0.,0.));
#593=DIRECTION('center_axis',(0.,-1.,0.));
#594=DIRECTION('ref_axis',(1.,0.,0.));
#595=DIRECTION('center_axis',(0.,1.,0.));
#596=DIRECTION('ref_axis',(1.,0.,0.));
#597=DIRECTION('center_axis',(0.,1.,0.));
#598=DIRECTION('ref_axis',(1.,0.,0.));
#599=DIRECTION('center_axis',(0.,1.,0.));
#600=DIRECTION('ref_axis',(1.,0.,0.));
#601=DIRECTION('center_axis',(0.,1.,0.));
#602=DIRECTION('ref_axis',(1.,0.,0.));
#603=DIRECTION('center_axis',(0.,1.,0.));
#604=DIRECTION('ref_axis',(-1.,0.,0.));
#605=DIRECTION('center_axis',(0.,1.,0.));
#606=DIRECTION('ref_axis',(-1.,0.,0.));
#607=DIRECTION('center_axis',(0.,1.,0.));
#608=DIRECTION('ref_axis',(-1.,0.,0.));
#609=DIRECTION('center_axis',(0.,1.,0.));
#610=DIRECTION('ref_axis',(-1.,0.,0.));
#611=DIRECTION('center_axis',(0.,1.,0.));
#612=DIRECTION('ref_axis',(1.,0.,0.));
#613=DIRECTION('',(0.,1.,0.));
#614=DIRECTION('center_axis',(0.,1.,0.));
#615=DIRECTION('ref_axis',(1.,0.,0.));
#616=DIRECTION('',(0.,1.,0.));
#617=DIRECTION('center_axis',(0.,1.,0.));
#618=DIRECTION('ref_axis',(-1.,0.,0.));
#619=DIRECTION('',(-0.707106781186547,-0.707106781186548,8.65956056235493E-17));
#620=DIRECTION('center_axis',(0.,-1.,0.));
#621=DIRECTION('ref_axis',(-1.,0.,0.));
#622=DIRECTION('center_axis',(0.,-1.,0.));
#623=DIRECTION('ref_axis',(-1.,0.,0.));
#624=DIRECTION('',(0.,-1.,0.));
#625=DIRECTION('center_axis',(0.,-1.,0.));
#626=DIRECTION('ref_axis',(-1.,0.,0.));
#627=DIRECTION('center_axis',(0.,1.,0.));
#628=DIRECTION('ref_axis',(-1.,0.,0.));
#629=DIRECTION('',(-0.707106781186547,-0.707106781186548,8.65956056235493E-17));
#630=DIRECTION('center_axis',(0.,-1.,0.));
#631=DIRECTION('ref_axis',(-1.,0.,0.));
#632=DIRECTION('center_axis',(0.,-1.,0.));
#633=DIRECTION('ref_axis',(-1.,0.,0.));
#634=DIRECTION('',(0.,-1.,0.));
#635=DIRECTION('center_axis',(0.,-1.,0.));
#636=DIRECTION('ref_axis',(-1.,0.,0.));
#637=DIRECTION('center_axis',(0.,1.,0.));
#638=DIRECTION('ref_axis',(-1.,0.,0.));
#639=DIRECTION('',(-0.707106781186547,-0.707106781186547,8.65956056235493E-17));
#640=DIRECTION('center_axis',(0.,-1.,0.));
#641=DIRECTION('ref_axis',(-1.,0.,0.));
#642=DIRECTION('center_axis',(0.,-1.,0.));
#643=DIRECTION('ref_axis',(-1.,0.,0.));
#644=DIRECTION('',(0.,-1.,0.));
#645=DIRECTION('center_axis',(0.,-1.,0.));
#646=DIRECTION('ref_axis',(-1.,0.,0.));
#647=DIRECTION('center_axis',(0.,1.,0.));
#648=DIRECTION('ref_axis',(-1.,0.,0.));
#649=DIRECTION('',(-0.707106781186547,-0.707106781186548,8.65956056235493E-17));
#650=DIRECTION('center_axis',(0.,-1.,0.));
#651=DIRECTION('ref_axis',(-1.,0.,0.));
#652=DIRECTION('center_axis',(0.,-1.,0.));
#653=DIRECTION('ref_axis',(-1.,0.,0.));
#654=DIRECTION('',(0.,-1.,0.));
#655=DIRECTION('center_axis',(0.,-1.,0.));
#656=DIRECTION('ref_axis',(-1.,0.,0.));
#657=DIRECTION('center_axis',(0.,1.,0.));
#658=DIRECTION('ref_axis',(-1.,0.,0.));
#659=DIRECTION('center_axis',(0.,1.,0.));
#660=DIRECTION('ref_axis',(-1.,0.,0.));
#661=DIRECTION('center_axis',(0.,1.,0.));
#662=DIRECTION('ref_axis',(-1.,0.,0.));
#663=DIRECTION('center_axis',(0.,1.,0.));
#664=DIRECTION('ref_axis',(-1.,0.,0.));
#665=DIRECTION('center_axis',(0.,1.,0.));
#666=DIRECTION('ref_axis',(-1.,0.,0.));
#667=DIRECTION('center_axis',(0.,1.,0.));
#668=DIRECTION('ref_axis',(-1.,0.,0.));
#669=DIRECTION('center_axis',(0.,-1.,0.));
#670=DIRECTION('ref_axis',(-1.,0.,0.));
#671=DIRECTION('',(0.,-1.,0.));
#672=DIRECTION('center_axis',(0.,-1.,0.));
#673=DIRECTION('ref_axis',(-1.,0.,0.));
#674=DIRECTION('',(0.,-1.,0.));
#675=DIRECTION('center_axis',(0.,-1.,0.));
#676=DIRECTION('ref_axis',(-1.,0.,0.));
#677=DIRECTION('',(0.,-1.,0.));
#678=DIRECTION('center_axis',(0.,1.,0.));
#679=DIRECTION('ref_axis',(-1.,0.,0.));
#680=DIRECTION('center_axis',(0.,1.,0.));
#681=DIRECTION('ref_axis',(-1.,0.,0.));
#682=DIRECTION('center_axis',(0.,-1.,0.));
#683=DIRECTION('ref_axis',(-1.,0.,0.));
#684=DIRECTION('',(0.,-1.,0.));
#685=DIRECTION('center_axis',(0.,1.,0.));
#686=DIRECTION('ref_axis',(1.,0.,0.));
#687=DIRECTION('',(0.,-1.,0.));
#688=CARTESIAN_POINT('',(0.,0.,0.));
#689=CARTESIAN_POINT('Origin',(0.,3.,7.));
#690=CARTESIAN_POINT('',(1.425,4.,7.));
#691=CARTESIAN_POINT('Origin',(0.,4.,7.));
#692=CARTESIAN_POINT('',(1.425,3.,7.));
#693=CARTESIAN_POINT('',(1.425,3.,7.));
#694=CARTESIAN_POINT('Origin',(0.,3.,7.));
#695=CARTESIAN_POINT('Origin',(7.,3.,0.));
#696=CARTESIAN_POINT('',(8.425,4.,0.));
#697=CARTESIAN_POINT('Origin',(7.,4.,0.));
#698=CARTESIAN_POINT('',(8.425,3.,-1.74512168878498E-16));
#699=CARTESIAN_POINT('',(8.425,3.,-1.74512168878498E-16));
#700=CARTESIAN_POINT('Origin',(7.,3.,0.));
#701=CARTESIAN_POINT('Origin',(0.,3.,-7.));
#702=CARTESIAN_POINT('',(1.425,4.,-7.));
#703=CARTESIAN_POINT('Origin',(0.,4.,-7.));
#704=CARTESIAN_POINT('',(1.425,3.,-7.));
#705=CARTESIAN_POINT('',(1.425,3.,-7.));
#706=CARTESIAN_POINT('Origin',(0.,3.,-7.));
#707=CARTESIAN_POINT('Origin',(0.,3.,0.));
#708=CARTESIAN_POINT('',(1.425,4.,0.));
#709=CARTESIAN_POINT('Origin',(0.,4.,0.));
#710=CARTESIAN_POINT('',(1.425,3.,-1.74512168878498E-16));
#711=CARTESIAN_POINT('',(1.425,3.,-1.74512168878498E-16));
#712=CARTESIAN_POINT('Origin',(0.,3.,0.));
#713=CARTESIAN_POINT('Origin',(0.,4.,0.));
#714=CARTESIAN_POINT('',(-16.5,4.,2.22044604925031E-15));
#715=CARTESIAN_POINT('Origin',(0.,4.,0.));
#716=CARTESIAN_POINT('',(-2.25,4.,13.725));
#717=CARTESIAN_POINT('Origin',(0.,4.,13.725));
#718=CARTESIAN_POINT('',(-2.25,4.,-13.725));
#719=CARTESIAN_POINT('Origin',(0.,4.,-13.725));
#720=CARTESIAN_POINT('Origin',(0.,0.75,-13.725));
#721=CARTESIAN_POINT('',(2.33275084646211,1.5,-16.334266848816));
#722=CARTESIAN_POINT('',(4.51662408482176,0.,-15.8697859744991));
#723=CARTESIAN_POINT('Ctrl Pts',(2.33275084646211,1.5,-16.334266848816));
#724=CARTESIAN_POINT('Ctrl Pts',(2.93778357586524,1.16116217390063,-16.247860117206));
#725=CARTESIAN_POINT('Ctrl Pts',(3.5226745270545,0.75386428088991,-16.1305729707473));
#726=CARTESIAN_POINT('Ctrl Pts',(4.23915107495838,0.214914804004878,-15.9467985239689));
#727=CARTESIAN_POINT('Ctrl Pts',(4.37819701245574,0.108144953710897,-15.9091830432462));
#728=CARTESIAN_POINT('Ctrl Pts',(4.51662408482176,1.11022302462516E-15,
-15.8697859744991));
#729=CARTESIAN_POINT('',(-4.51662408482176,0.,-15.8697859744991));
#730=CARTESIAN_POINT('Origin',(0.,0.,-13.725));
#731=CARTESIAN_POINT('',(-2.33275084646211,1.5,-16.334266848816));
#732=CARTESIAN_POINT('Ctrl Pts',(-4.51662408482176,1.31838984174237E-15,
-15.8697859744991));
#733=CARTESIAN_POINT('Ctrl Pts',(-4.33624513295914,0.140919496932105,-15.9211227675527));
#734=CARTESIAN_POINT('Ctrl Pts',(-4.15490817744934,0.279443736151686,-15.9694111084767));
#735=CARTESIAN_POINT('Ctrl Pts',(-3.47745337357608,0.782463124242223,-16.137452647372));
#736=CARTESIAN_POINT('Ctrl Pts',(-2.91905954336215,1.17164823549835,-16.2505341584149));
#737=CARTESIAN_POINT('Ctrl Pts',(-2.33275084646211,1.5,-16.334266848816));
#738=CARTESIAN_POINT('Origin',(0.,1.5,-13.725));
#739=CARTESIAN_POINT('Origin',(0.,0.75,13.725));
#740=CARTESIAN_POINT('',(-2.33275084646211,1.5,16.334266848816));
#741=CARTESIAN_POINT('',(-4.51662408482176,0.,15.8697859744991));
#742=CARTESIAN_POINT('Ctrl Pts',(-2.33275084646211,1.5,16.334266848816));
#743=CARTESIAN_POINT('Ctrl Pts',(-2.91873852537467,1.17182801591638,16.2505800040588));
#744=CARTESIAN_POINT('Ctrl Pts',(-3.47682501654508,0.782895477562485,16.1375795081893));
#745=CARTESIAN_POINT('Ctrl Pts',(-4.15432259649984,0.279891136730546,15.9695670415836));
#746=CARTESIAN_POINT('Ctrl Pts',(-4.33595376942309,0.141147122176068,15.9212056911388));
#747=CARTESIAN_POINT('Ctrl Pts',(-4.51662408482176,8.67361737988404E-16,
15.8697859744991));
#748=CARTESIAN_POINT('',(4.51662408482176,0.,15.8697859744991));
#749=CARTESIAN_POINT('Origin',(0.,0.,13.725));
#750=CARTESIAN_POINT('',(2.33275084646211,1.5,16.334266848816));
#751=CARTESIAN_POINT('Ctrl Pts',(4.51662408482176,1.14491749414469E-15,
15.8697859744991));
#752=CARTESIAN_POINT('Ctrl Pts',(4.3782386495087,0.108112425123184,15.9091711931232));
#753=CARTESIAN_POINT('Ctrl Pts',(4.23923475803517,0.214850540397143,15.9467758845965));
#754=CARTESIAN_POINT('Ctrl Pts',(3.52275900291367,0.753806168320565,16.1305561548588));
#755=CARTESIAN_POINT('Ctrl Pts',(2.93782605974492,1.16113838155893,16.2478540499422));
#756=CARTESIAN_POINT('Ctrl Pts',(2.33275084646211,1.5,16.334266848816));
#757=CARTESIAN_POINT('Origin',(0.,1.5,13.725));
#758=CARTESIAN_POINT('Origin',(0.,1.5,0.));
#759=CARTESIAN_POINT('Origin',(0.,1.5,0.));
#760=CARTESIAN_POINT('',(-2.25,1.5,-13.725));
#761=CARTESIAN_POINT('Origin',(0.,1.5,-13.725));
#762=CARTESIAN_POINT('Origin',(0.,1.5,0.));
#763=CARTESIAN_POINT('Origin',(0.,1.5,0.));
#764=CARTESIAN_POINT('',(-2.25,1.5,13.725));
#765=CARTESIAN_POINT('Origin',(0.,1.5,13.725));
#766=CARTESIAN_POINT('Origin',(0.,0.,0.));
#767=CARTESIAN_POINT('Origin',(0.,0.,0.));
#768=CARTESIAN_POINT('',(-16.5,0.,2.02066721859313E-15));
#769=CARTESIAN_POINT('Origin',(0.,0.,0.));
#770=CARTESIAN_POINT('Origin',(0.,0.,0.));
#771=CARTESIAN_POINT('',(0.875,0.,-1.07156594925393E-16));
#772=CARTESIAN_POINT('Origin',(0.,0.,0.));
#773=CARTESIAN_POINT('',(0.875,0.,-7.));
#774=CARTESIAN_POINT('Origin',(0.,0.,-7.));
#775=CARTESIAN_POINT('',(7.875,0.,-1.07156594925393E-16));
#776=CARTESIAN_POINT('Origin',(7.,0.,0.));
#777=CARTESIAN_POINT('',(0.875,0.,7.));
#778=CARTESIAN_POINT('Origin',(0.,0.,7.));
#779=CARTESIAN_POINT('Origin',(0.,0.,13.725));
#780=CARTESIAN_POINT('',(-2.25,0.,13.725));
#781=CARTESIAN_POINT('Origin',(0.,0.,-13.725));
#782=CARTESIAN_POINT('',(-2.25,0.,-13.725));
#783=CARTESIAN_POINT('Origin',(0.,2.85,7.));
#784=CARTESIAN_POINT('',(1.125,2.7,7.));
#785=CARTESIAN_POINT('',(1.275,2.85,7.));
#786=CARTESIAN_POINT('Origin',(0.,2.7,7.));
#787=CARTESIAN_POINT('Origin',(0.,3.,7.));
#788=CARTESIAN_POINT('',(1.125,1.5,7.));
#789=CARTESIAN_POINT('',(1.125,3.,7.));
#790=CARTESIAN_POINT('Origin',(0.,1.5,7.));
#791=CARTESIAN_POINT('Origin',(0.,2.85,0.));
#792=CARTESIAN_POINT('',(1.125,2.7,1.37772764904077E-16));
#793=CARTESIAN_POINT('',(1.275,2.85,-1.56142466891288E-16));
#794=CARTESIAN_POINT('Origin',(0.,2.7,0.));
#795=CARTESIAN_POINT('Origin',(0.,3.,0.));
#796=CARTESIAN_POINT('',(1.125,1.5,-1.37772764904077E-16));
#797=CARTESIAN_POINT('',(1.125,3.,1.37772764904077E-16));
#798=CARTESIAN_POINT('Origin',(0.,1.5,0.));
#799=CARTESIAN_POINT('Origin',(7.,2.85,0.));
#800=CARTESIAN_POINT('',(8.125,2.7,1.37772764904077E-16));
#801=CARTESIAN_POINT('',(8.275,2.85,-1.56142466891287E-16));
#802=CARTESIAN_POINT('Origin',(7.,2.7,0.));
#803=CARTESIAN_POINT('Origin',(7.,3.,0.));
#804=CARTESIAN_POINT('',(8.125,1.5,-1.37772764904077E-16));
#805=CARTESIAN_POINT('',(8.125,3.,1.37772764904077E-16));
#806=CARTESIAN_POINT('Origin',(7.,1.5,0.));
#807=CARTESIAN_POINT('Origin',(0.,2.85,-7.));
#808=CARTESIAN_POINT('',(1.125,2.7,-7.));
#809=CARTESIAN_POINT('',(1.275,2.85,-7.));
#810=CARTESIAN_POINT('Origin',(0.,2.7,-7.));
#811=CARTESIAN_POINT('Origin',(0.,3.,-7.));
#812=CARTESIAN_POINT('',(1.125,1.5,-7.));
#813=CARTESIAN_POINT('',(1.125,3.,-7.));
#814=CARTESIAN_POINT('Origin',(0.,1.5,-7.));
#815=CARTESIAN_POINT('Origin',(0.,1.5,0.));
#816=CARTESIAN_POINT('',(0.875,1.5,7.));
#817=CARTESIAN_POINT('Origin',(0.,1.5,7.));
#818=CARTESIAN_POINT('Origin',(0.,1.5,0.));
#819=CARTESIAN_POINT('',(7.875,1.5,-1.07156594925393E-16));
#820=CARTESIAN_POINT('Origin',(7.,1.5,0.));
#821=CARTESIAN_POINT('Origin',(0.,1.5,0.));
#822=CARTESIAN_POINT('',(0.875,1.5,-7.));
#823=CARTESIAN_POINT('Origin',(0.,1.5,-7.));
#824=CARTESIAN_POINT('Origin',(0.,3.,7.));
#825=CARTESIAN_POINT('',(0.875,3.,7.));
#826=CARTESIAN_POINT('Origin',(7.,3.,0.));
#827=CARTESIAN_POINT('',(7.875,3.,1.07156594925393E-16));
#828=CARTESIAN_POINT('Origin',(0.,3.,-7.));
#829=CARTESIAN_POINT('',(0.875,3.,-7.));
#830=CARTESIAN_POINT('Origin',(0.,1.5,0.));
#831=CARTESIAN_POINT('',(0.875,1.5,-1.07156594925393E-16));
#832=CARTESIAN_POINT('Origin',(0.,1.5,0.));
#833=CARTESIAN_POINT('Origin',(0.,3.,0.));
#834=CARTESIAN_POINT('',(0.875,3.,1.07156594925393E-16));
#835=CARTESIAN_POINT('Origin',(0.,0.,0.));
#836=CARTESIAN_POINT('',(-16.5,0.,2.02066721859313E-15));
#837=UNCERTAINTY_MEASURE_WITH_UNIT(LENGTH_MEASURE(0.01),#841,
'DISTANCE_ACCURACY_VALUE',
'Maximum model space distance between geometric entities at asserted c
onnectivities');
#838=UNCERTAINTY_MEASURE_WITH_UNIT(LENGTH_MEASURE(0.01),#841,
'DISTANCE_ACCURACY_VALUE',
'Maximum model space distance between geometric entities at asserted c
onnectivities');
#839=(
GEOMETRIC_REPRESENTATION_CONTEXT(3)
GLOBAL_UNCERTAINTY_ASSIGNED_CONTEXT((#837))
GLOBAL_UNIT_ASSIGNED_CONTEXT((#841,#842,#843))
REPRESENTATION_CONTEXT('','3D')
);
#840=(
GEOMETRIC_REPRESENTATION_CONTEXT(3)
GLOBAL_UNCERTAINTY_ASSIGNED_CONTEXT((#838))
GLOBAL_UNIT_ASSIGNED_CONTEXT((#841,#842,#843))
REPRESENTATION_CONTEXT('','3D')
);
#841=(
LENGTH_UNIT()
NAMED_UNIT(*)
SI_UNIT(.MILLI.,.METRE.)
);
#842=(
NAMED_UNIT(*)
PLANE_ANGLE_UNIT()
SI_UNIT($,.RADIAN.)
);
#843=(
NAMED_UNIT(*)
SI_UNIT($,.STERADIAN.)
SOLID_ANGLE_UNIT()
);
#844=SHAPE_DEFINITION_REPRESENTATION(#845,#846);
#845=PRODUCT_DEFINITION_SHAPE('',$,#848);
#846=SHAPE_REPRESENTATION('',(#465),#839);
#847=PRODUCT_DEFINITION_CONTEXT('part definition',#852,'design');
#848=PRODUCT_DEFINITION('Turn R8 LMS DIY Files',
'Turn R8 LMS DIY Files v10',#849,#847);
#849=PRODUCT_DEFINITION_FORMATION('',$,#854);
#850=PRODUCT_RELATED_PRODUCT_CATEGORY('Turn R8 LMS DIY Files v10',
'Turn R8 LMS DIY Files v10',(#854));
#851=APPLICATION_PROTOCOL_DEFINITION('international standard',
'automotive_design',2009,#852);
#852=APPLICATION_CONTEXT(
'Core Data for Automotive Mechanical Design Process');
#853=PRODUCT_CONTEXT('part definition',#852,'mechanical');
#854=PRODUCT('Turn R8 LMS DIY Files','Turn R8 LMS DIY Files v10',$,(#853));
#855=PRESENTATION_STYLE_ASSIGNMENT((#861));
#856=PRESENTATION_STYLE_ASSIGNMENT((#862));
#857=PRESENTATION_STYLE_ASSIGNMENT((#863));
#858=PRESENTATION_STYLE_ASSIGNMENT((#864));
#859=PRESENTATION_STYLE_ASSIGNMENT((#865));
#860=PRESENTATION_STYLE_ASSIGNMENT((#866));
#861=SURFACE_STYLE_USAGE(.BOTH.,#867);
#862=SURFACE_STYLE_USAGE(.BOTH.,#868);
#863=SURFACE_STYLE_USAGE(.BOTH.,#869);
#864=SURFACE_STYLE_USAGE(.BOTH.,#870);
#865=SURFACE_STYLE_USAGE(.BOTH.,#871);
#866=SURFACE_STYLE_USAGE(.BOTH.,#872);
#867=SURFACE_SIDE_STYLE('',(#873));
#868=SURFACE_SIDE_STYLE('',(#874));
#869=SURFACE_SIDE_STYLE('',(#875));
#870=SURFACE_SIDE_STYLE('',(#876));
#871=SURFACE_SIDE_STYLE('',(#877));
#872=SURFACE_SIDE_STYLE('',(#878));
#873=SURFACE_STYLE_FILL_AREA(#879);
#874=SURFACE_STYLE_FILL_AREA(#880);
#875=SURFACE_STYLE_FILL_AREA(#881);
#876=SURFACE_STYLE_FILL_AREA(#882);
#877=SURFACE_STYLE_FILL_AREA(#883);
#878=SURFACE_STYLE_FILL_AREA(#884);
#879=FILL_AREA_STYLE('Powder Coat (Black)',(#885));
#880=FILL_AREA_STYLE('Steel - Satin',(#886));
#881=FILL_AREA_STYLE('Paint - Enamel Glossy (Black)',(#887));
#882=FILL_AREA_STYLE('Plastic - Textured - Regular',(#888));
#883=FILL_AREA_STYLE('Stainless Steel - Brushed Linear Long',(#889));
#884=FILL_AREA_STYLE('Opaque(25,25,25)',(#890));
#885=FILL_AREA_STYLE_COLOUR('Powder Coat (Black)',#891);
#886=FILL_AREA_STYLE_COLOUR('Steel - Satin',#892);
#887=FILL_AREA_STYLE_COLOUR('Paint - Enamel Glossy (Black)',#893);
#888=FILL_AREA_STYLE_COLOUR('Plastic - Textured - Regular',#894);
#889=FILL_AREA_STYLE_COLOUR('Stainless Steel - Brushed Linear Long',#895);
#890=FILL_AREA_STYLE_COLOUR('Opaque(25,25,25)',#896);
#891=COLOUR_RGB('Powder Coat (Black)',0.0980392156862745,0.0980392156862745,
0.0980392156862745);
#892=COLOUR_RGB('Steel - Satin',0.627450980392157,0.627450980392157,0.627450980392157);
#893=COLOUR_RGB('Paint - Enamel Glossy (Black)',0.0980392156862745,0.0980392156862745,
0.0980392156862745);
#894=COLOUR_RGB('Plastic - Textured - Regular',0.0980392156862745,0.0980392156862745,
0.0980392156862745);
#895=COLOUR_RGB('Stainless Steel - Brushed Linear Long',0.796078431372549,
0.796078431372549,0.796078431372549);
#896=COLOUR_RGB('Opaque(25,25,25)',0.0980392156862745,0.0980392156862745,
0.0980392156862745);
ENDSEC;
END-ISO-10303-21;
